<svg xmlns="http://www.w3.org/2000/svg" width="19.432" height="20" viewBox="0 0 19.432 20">
  <g id="arrow-bar-up" transform="translate(-2.497 30.123) rotate(-90)">
    <path id="Path_240" data-name="Path 240" d="M29.7,15.509a1.428,1.428,0,0,0,0-2.022l-8.57-8.57a1.428,1.428,0,0,0-2.022,0l-8.57,8.57a1.43,1.43,0,1,0,2.022,2.022l7.559-7.56,7.559,7.562a1.428,1.428,0,0,0,2.022,0Z" transform="translate(0 -2)" fill="#fff" fill-rule="evenodd"/>
    <path id="Path_241" data-name="Path 241" d="M29.7,15.509a1.428,1.428,0,0,0,0-2.022l-8.57-8.57a1.428,1.428,0,0,0-2.022,0l-8.57,8.57a1.43,1.43,0,1,0,2.022,2.022l7.559-7.56,7.559,7.562a1.428,1.428,0,0,0,2.022,0Z" transform="translate(0 6)" fill="#fff" fill-rule="evenodd"/>
  </g>
</svg>
