<svg xmlns="http://www.w3.org/2000/svg" width="19" height="20.461" viewBox="0 0 19 20.461">
  <path id="calendar-o" d="M1.461,19H17.538V7.307H1.461V19ZM5.846,5.115V1.827a.354.354,0,0,0-.1-.263.36.36,0,0,0-.263-.1H4.75a.354.354,0,0,0-.263.1.36.36,0,0,0-.1.263V5.115a.354.354,0,0,0,.1.263.36.36,0,0,0,.263.1H5.48a.354.354,0,0,0,.263-.1A.36.36,0,0,0,5.846,5.115Zm8.769,0V1.827a.354.354,0,0,0-.1-.263.36.36,0,0,0-.263-.1h-.731a.354.354,0,0,0-.263.1.36.36,0,0,0-.1.263V5.115a.354.354,0,0,0,.1.263.36.36,0,0,0,.263.1h.731a.354.354,0,0,0,.263-.1A.36.36,0,0,0,14.615,5.115ZM19,4.385V19a1.482,1.482,0,0,1-1.461,1.461H1.461a1.4,1.4,0,0,1-1.027-.434A1.4,1.4,0,0,1,0,19V4.385A1.4,1.4,0,0,1,.434,3.357a1.4,1.4,0,0,1,1.027-.434H2.923v-1.1A1.759,1.759,0,0,1,3.459.537,1.763,1.763,0,0,1,4.75,0H5.48A1.759,1.759,0,0,1,6.77.536a1.759,1.759,0,0,1,.536,1.29v1.1h4.385v-1.1a1.759,1.759,0,0,1,.536-1.29A1.759,1.759,0,0,1,13.517,0h.731a1.759,1.759,0,0,1,1.29.536,1.759,1.759,0,0,1,.536,1.29v1.1h1.461a1.4,1.4,0,0,1,1.027.434A1.4,1.4,0,0,1,19,4.384Z" fill="#fcfcff"/>
</svg>
