<svg id="clock" xmlns="http://www.w3.org/2000/svg" width="19" height="19" viewBox="0 0 19 19">
  <path id="Path_247" data-name="Path 247" d="M9.5,17.813A8.313,8.313,0,1,0,1.188,9.5,8.312,8.312,0,0,0,9.5,17.813ZM19,9.5A9.5,9.5,0,1,1,9.5,0,9.5,9.5,0,0,1,19,9.5Z" fill="#fcfcff" fill-rule="evenodd"/>
  <path id="Path_248" data-name="Path 248" d="M11.057,4.5a.557.557,0,0,1,.557.557v5.8l3.617,2.067a.557.557,0,0,1-.552.967l-3.9-2.227a.557.557,0,0,1-.281-.483V5.057A.557.557,0,0,1,11.057,4.5Z" transform="translate(-2 -1.371)" fill="#fcfcff" fill-rule="evenodd"/>
</svg>
