<svg xmlns="http://www.w3.org/2000/svg" width="35" height="35" viewBox="0 0 35 35">
  <path id="linkedin-rect" d="M6.865.009A6.879,6.879,0,0,0,.007,6.868V28.152a6.878,6.878,0,0,0,6.859,6.857H28.15a6.877,6.877,0,0,0,6.857-6.857V6.868A6.879,6.879,0,0,0,28.15.009ZM8.591,5.785a2.756,2.756,0,1,1-.035,5.495H8.522a2.755,2.755,0,1,1,.069-5.495Zm15.585,7.294c3.478,0,6.085,2.273,6.085,7.159v9.12H24.975V20.849c0-2.138-.765-3.6-2.678-3.6a2.9,2.9,0,0,0-2.713,1.933,3.609,3.609,0,0,0-.174,1.29v8.882H14.124s.069-14.413,0-15.9H19.41V15.7a5.248,5.248,0,0,1,4.764-2.625Zm-18.263.374H11.2v15.9H5.913Z" transform="translate(-0.007 -0.009)" fill="#fff"/>
</svg>
