<svg xmlns="http://www.w3.org/2000/svg" width="16.5" height="21" viewBox="0 0 16.5 21">
  <g id="location" transform="translate(-3.75 -1.5)">
    <path id="Path_249" data-name="Path 249" d="M12,13.5a3.75,3.75,0,1,1,3.75-3.75A3.75,3.75,0,0,1,12,13.5Zm0-6a2.25,2.25,0,1,0,2.25,2.25A2.25,2.25,0,0,0,12,7.5Z" fill="#fcfcff"/>
    <path id="Path_250" data-name="Path 250" d="M12,22.5,5.673,15.038q-.132-.168-.261-.338A8.167,8.167,0,0,1,3.75,9.75a8.25,8.25,0,0,1,16.5,0A8.163,8.163,0,0,1,18.589,14.7v0s-.225.3-.259.335ZM6.609,13.8s.176.231.215.28L12,20.181l5.183-6.113c.033-.041.209-.274.209-.274A6.676,6.676,0,0,0,18.75,9.75a6.75,6.75,0,1,0-13.5,0A6.679,6.679,0,0,0,6.61,13.8Z" fill="#fcfcff"/>
  </g>
</svg>
