<svg xmlns="http://www.w3.org/2000/svg" width="35" height="28" viewBox="0 0 35 28">
  <path id="twitter" d="M35,6.276a9.028,9.028,0,0,1-1.307,1.8,9.56,9.56,0,0,1-2.361,1.911q.039.3.058.562a19.67,19.67,0,0,1-1.5,7.81,20.753,20.753,0,0,1-8.525,10.17A23.222,23.222,0,0,1,8.019,30.867,15.7,15.7,0,0,1,0,27.889a15.384,15.384,0,0,0,10.692-2.96c-3.28.079-5.664-2.2-6.789-4.832a4.752,4.752,0,0,0,1.522.075,14.712,14.712,0,0,0,1.717-.225,8.007,8.007,0,0,1-4.878-3.633,7.574,7.574,0,0,1-.82-3.446,7.064,7.064,0,0,0,3.238.936A7.99,7.99,0,0,1,1.5,8.841,8.873,8.873,0,0,1,2.38,4.364a24.468,24.468,0,0,0,8.331,5.993,17.876,17.876,0,0,0,6.535,1.311,8.093,8.093,0,0,1,.878-5.319A7.54,7.54,0,0,1,22.63,3.2,6.822,6.822,0,0,1,29.3,5.189,12.187,12.187,0,0,0,33.946,3.54a6.81,6.81,0,0,1-3.2,3.97A20.921,20.921,0,0,0,35,6.275Z" transform="translate(0 -2.999)" fill="#fff"/>
</svg>
