<svg xmlns="http://www.w3.org/2000/svg" width="35" height="23.333" viewBox="0 0 35 23.333">
  <path id="youtube-play" d="M13.885,16.164l9.452-4.629L13.885,6.849v9.315ZM17.5.2q3.281,0,6.338.083T28.318.46l1.426.074q.019,0,.332.028t.449.055q.136.028.459.083a2.8,2.8,0,0,1,.557.148q.234.093.547.241a3.7,3.7,0,0,1,.606.361,4.728,4.728,0,0,1,.567.49,3.538,3.538,0,0,1,.3.343,6.186,6.186,0,0,1,.567,1.083,6.7,6.7,0,0,1,.517,1.87q.157,1.185.244,2.528T35,9.868v3.259a37.185,37.185,0,0,1-.352,5.37,7.105,7.105,0,0,1-.488,1.843,4.6,4.6,0,0,1-.625,1.138l-.273.315a4.525,4.525,0,0,1-.567.49,3.369,3.369,0,0,1-.606.352q-.312.139-.547.231a2.91,2.91,0,0,1-.557.148l-.469.083q-.147.027-.449.055t-.322.028q-4.9.352-12.245.352-4.042-.037-7.021-.121t-3.915-.139L5.605,23.2l-.7-.074a9.6,9.6,0,0,1-1.065-.185,6.249,6.249,0,0,1-1-.389,3.888,3.888,0,0,1-1.1-.76,3.537,3.537,0,0,1-.3-.343,6.186,6.186,0,0,1-.567-1.083A6.7,6.7,0,0,1,.352,18.5Q.2,17.311.108,15.969T0,13.867V10.608a37.185,37.185,0,0,1,.352-5.37A7.105,7.105,0,0,1,.84,3.4a4.6,4.6,0,0,1,.625-1.138l.273-.315a4.525,4.525,0,0,1,.567-.49,3.862,3.862,0,0,1,.6-.361q.311-.148.547-.241A2.936,2.936,0,0,1,4.014.7q.321-.056.459-.083T4.922.562q.311-.029.332-.028Q10.156.2,17.5.2Z" transform="translate(0.001 -0.201)" fill="#fff"/>
</svg>
